# xmcd
#
# Track frame offsets: 
#        150
#        22677
#        39690
#        57317
#        70617
#        85777
#        99080
#        117960
#        143215
#        158402
#        176090
#        194910
#        210935
#        240622
#
# Disc length: 3427 seconds
#
# Revision: 5
# Processed by: cddbd v1.4PL0 Copyright (c) Steve Scherf et al.
# Submitted via: ExactAudioCopy v0.90b4
#
DISCID=b00d610e
DTITLE=Various Artist - Rock and Pop Classics - The Power of Love
DYEAR=1999
DGENRE=Rock and Roll
TTITLE0=Foreigner - I Want to Know What Love Is
TTITLE1=Commodores - Still
TTITLE2=Huey Lewis And The News - The Power of Love
TTITLE3=Poco - Crazy Love
TTITLE4=REO Speedwagon - Keep On Loving You
TTITLE5=Percy Sledge - When a Man Loves a Woman
TTITLE6=Dan Hartman - I Can Dream About You
TTITLE7=Spandau Ballet - True
TTITLE8=The Righteous Brothers - (You're My) Soul and Inspiration
TTITLE9=Bangles - Eternal Flame
TTITLE10=The Hollies - The Air That I Breathe
TTITLE11=Barry White - You're the First, the Last, My Everything
TTITLE12=Bryan Adams - (Everything I Do) I Do It For You
TTITLE13=Vanessa Williams - Save the Best for Last
EXTD=
EXTT0=
EXTT1=
EXTT2=
EXTT3=
EXTT4=
EXTT5=
EXTT6=
EXTT7=
EXTT8=
EXTT9=
EXTT10=
EXTT11=
EXTT12=
EXTT13=
PLAYORDER=
